<?xml version="1.0" encoding="UTF-8" standalone="no"?>
<!-- Created with Inkscape (http://www.inkscape.org/) -->

<svg
   width="374.99615"
   height="372.82391"
   viewBox="0 0 99.217725 98.642994"
   version="1.1"
   id="svg1"
   xml:space="preserve"
   xmlns:xlink="http://www.w3.org/1999/xlink"
   xmlns="http://www.w3.org/2000/svg"
   xmlns:svg="http://www.w3.org/2000/svg"><defs
     id="defs1"><linearGradient
       id="swatch12"><stop
         style="stop-color:#000000;stop-opacity:1;"
         offset="0"
         id="stop12" /></linearGradient><linearGradient
       id="swatch8"><stop
         style="stop-color:#000000;stop-opacity:0;"
         offset="0"
         id="stop8" /></linearGradient><linearGradient
       id="swatch2"><stop
         style="stop-color:#000000;stop-opacity:1;"
         offset="0"
         id="stop2" /></linearGradient><linearGradient
       id="swatch1"><stop
         style="stop-color:#133451;stop-opacity:1;"
         offset="0"
         id="stop1" /></linearGradient><linearGradient
       xlink:href="#swatch8"
       id="linearGradient8"
       x1="31.838291"
       y1="114.97704"
       x2="231.35059"
       y2="114.97704"
       gradientUnits="userSpaceOnUse"
       gradientTransform="matrix(0.9669768,0,0,0.96306056,-77.639913,-61.40835)" /><linearGradient
       xlink:href="#swatch1"
       id="linearGradient12"
       x1="83.731346"
       y1="114.78493"
       x2="180.22598"
       y2="114.78493"
       gradientUnits="userSpaceOnUse"
       gradientTransform="matrix(0.99721678,0,0,0.99721678,-82.002474,-65.143951)" /></defs><ellipse
     style="display:inline;fill:url(#linearGradient8);stroke:url(#linearGradient12);stroke-width:2.99165;stroke-dasharray:none;paint-order:markers fill stroke"
     id="path1"
     cx="49.608868"
     cy="49.321499"
     rx="48.113041"
     ry="47.825672" /><ellipse
     style="display:inline;fill:#ffffff;fill-opacity:1;stroke-width:1.33399;paint-order:markers fill stroke"
     id="path8"
     cx="49.687267"
     cy="49.264263"
     rx="46.655792"
     ry="46.939873" /><path
     style="display:inline;fill:#97bd3f;fill-opacity:1;stroke-width:0.264583;paint-order:markers fill stroke"
     d="m 26.477936,73.989254 c -0.037,0.0526 7.91247,0.19211 7.91247,0.19211 -4.83321,-7.80355 -1.05118,-14.0612 -1.05118,-14.0612 18.3979,-0.55855 17.16374,-14.56699 21.46293,-19.05175 0.0945,-0.0985 -8.31135,-1.43075 -16.57264,3.7696 -8.28941,5.21805 -7.14024,13.72563 -7.03633,13.56424 7.08558,-11.0054 14.65187,-12.24289 14.40572,-12.10395 -10.6301,6.00026 -14.68315,15.80198 -14.9765,15.79156 -0.31721,-0.0113 -3.82729,-8.77535 -14.942552,-15.79156 -0.188901,-0.11924 8.845312,2.66152 13.855812,11.71632 0.0911,0.16466 1.80436,-7.42875 -6.89394,-13.41434 -5.163496,-3.55318 -16.7481578,-3.78933 -16.5047258,-3.56583 4.7343498,4.34666 3.118321,18.68129 21.4968858,19.18759 0,0 4.21032,6.14201 -1.15595,13.76721 z"
     id="path11" /><path
     style="display:inline;fill:#9f6030;fill-opacity:1;stroke-width:0.264583;paint-order:markers fill stroke"
     d="m 13.450563,76.294554 c -1.248837,0.47623 13.892143,15.962251 28.960373,17.673991 26.90795,3.05673 41.063227,-14.360121 41.063227,-14.360121 0,0 -14.679497,7.44356 -35.876287,-2.44939 -2.45384,-1.14526 -18.65507,-6.77228 -34.147313,-0.86448 z"
     id="path9" /><path
     style="display:inline;fill:#fefefd;fill-opacity:1;stroke-width:0.264583;paint-order:markers fill stroke"
     d="m 73.554761,84.381544 c -11.042035,1.41963 -13.005975,1.32741 -24.440225,-2.19738 -0.0315,-0.01 4.40995,3.90062 11.88019,4.56877 7.47024,0.668151 12.560035,-2.37139 12.560035,-2.37139 z"
     id="path10-16" /><path
     style="display:inline;fill:#fefefd;fill-opacity:1;stroke-width:0.264583;paint-order:markers fill stroke"
     d="m 37.618356,88.305065 c 4.223,-0.57302 8.14222,0.0364 11.88291,0.73769 0.0324,0.006 -2.28526,-2.274341 -5.4492,-2.467261 -3.08332,-0.188 -6.43371,1.729571 -6.43371,1.729571 z"
     id="path10-14" /><path
     style="display:inline;fill:#fefefd;fill-opacity:1;stroke-width:0.264583;paint-order:markers fill stroke"
     d="m 36.234876,80.935954 c 5.34495,0.24133 5.45472,0.78986 8.77112,2.28754 0,0 -0.45714,-2.09534 -3.47352,-3.06962 -2.93952,-0.94945 -5.2976,0.78208 -5.2976,0.78208 z"
     id="path10-1" /><path
     style="display:inline;fill:#fefefd;fill-opacity:1;stroke-width:0.264583;paint-order:markers fill stroke"
     d="m 24.701966,83.768054 c 4.37026,0.0773 6.06227,0.009 10.20713,1.11337 0,0 -1.54209,-1.94528 -4.68671,-2.34421 -3.06449,-0.38878 -5.52042,1.23084 -5.52042,1.23084 z"
     id="path10-5" /><path
     style="display:inline;fill:#fefefd;fill-opacity:1;stroke-width:0.264583;paint-order:markers fill stroke"
     d="m 19.057736,79.908594 c 4.1803,-0.82897 4.19607,-0.65245 7.97251,-0.1801 0.0327,0.004 -0.73239,-1.88507 -3.90221,-1.88507 -3.08905,0 -4.0703,2.06517 -4.0703,2.06517 z"
     id="path10" /><path
     style="display:inline;fill:#2e99d3;fill-opacity:1;stroke-width:0.264583;paint-order:markers fill stroke"
     d="m 34.799217,72.137648 c 9.60939,1.00219 20.40218,7.2584 29.60012,8.06252 4.12089,0.36027 14.789857,1.27297 20.678826,-3.85382 7.40297,-6.44485 9.54975,-19.57471 7.52619,-25.55045 -4.01278,-11.85004 -14.158172,-14.35482 -17.145692,-14.3121 -18.040014,0.25794 -18.856774,13.02839 -15.375234,14.26698 3.73315,1.3281 3.59021,-5.33528 5.98592,-4.81763 0.21606,0.0467 -0.10747,2.9191 2.62174,3.45589 2.098724,0.41279 3.057394,-2.09571 4.222134,-3.68402 1.28548,-1.75295 4.97015,-1.52619 6.891891,-0.48027 5.096211,2.77362 4.460541,10.53177 4.418501,10.32584 -2.65637,-13.011 -11.317902,-9.50644 -11.046242,-9.41333 9.261002,3.17415 7.517811,11.57139 7.252101,13.23149 -1.067188,6.66752 -7.299661,11.07554 -10.686051,11.26237 -0.0575,0.003 0.0279,0.79507 -0.341234,1.40804 -0.36913,0.61297 -1.27833,1.29285 -1.21965,1.28148 10.689967,-2.07148 13.409446,-9.36191 13.303536,-9.14918 -9.218312,18.51568 -30.521276,9.34129 -30.521276,9.34129 0,0 7.24447,1.50842 11.81468,0.69639 0.0997,-0.0177 -0.39926,-0.46438 -0.42922,-1.01136 -0.03,-0.54699 0.55759,-1.14783 0.45322,-1.14986 -2.98758,-0.058 -4.53219,0.72338 -11.45253,-0.72478 -10.88975,-2.27881 -16.67418,0.80174 -16.55173,0.81451 z"
     id="path12" /><path
     style="display:inline;fill:#fdfefd;fill-opacity:1;stroke-width:2.5;stroke-dasharray:none;paint-order:markers fill stroke"
     d="m 68.165247,77.876938 c 0,0 9.538634,0.30812 14.942546,-6.18077 5.40392,-6.4889 3.56584,-13.41434 3.56584,-13.41434 -1.97346,11.04479 -6.418341,16.26882 -18.508386,19.59511 z"
     id="path13" /><path
     style="fill:#fdfefd;fill-opacity:1;stroke-width:2.5;stroke-dasharray:none;paint-order:markers fill stroke"
     d="m 90.477193,52.814218 c 0,0 -1.97719,-11.62151 -13.764182,-14.17723 -12.366994,-2.68148 -20.332024,9.19641 -15.815284,10.30575 1.66795,0.40966 1.95225,-3.36993 3.66772,-4.04128 1.05393,-0.41245 1.42456,-0.33055 1.86782,-0.50941 1.66794,-2.3641 3.136364,-2.36934 3.136364,-2.36934 -2.231644,1.37737 -2.569904,5.14147 -0.928954,5.66349 1.325114,0.42154 1.580274,-0.79933 3.158324,-3.22623 0.81159,-1.24816 4.94522,-2.67366 8.150481,-1.52821 0,0 5.546781,0.67139 10.527711,9.88246 z"
     id="path14" /><ellipse
     style="fill:#2fa4d9;fill-opacity:1;stroke-width:2.93152;stroke-dasharray:none;paint-order:markers fill stroke"
     id="path15"
     cx="56.043667"
     cy="50.111511"
     rx="1.2967335"
     ry="1.3927879" /><ellipse
     style="display:inline;fill:#2fa4d9;fill-opacity:1;stroke-width:2.18553;stroke-dasharray:none;paint-order:markers fill stroke"
     id="path15-1"
     cx="56.071621"
     cy="56.889465"
     rx="0.96654671"
     ry="1.0385876" /><path
     style="display:inline;fill:#14304b;fill-opacity:1;stroke-width:2.5;stroke-dasharray:none;paint-order:markers fill stroke"
     d="m 64.294076,65.417974 c 0,0 1.92284,2.48925 1.94448,3.98537 0.0212,1.46803 -1.79166,3.94437 -1.79166,3.94437 3.9486,-0.6423 4.70351,-3.66772 4.70351,-3.66772 6.613405,-1.88144 6.027965,-7.18261 6.027965,-7.18261 0.45524,-0.73936 1.96968,-0.88297 1.96968,-0.88297 0,0 -0.71838,-1.33959 -2.8187,-2.85267 0,0 -0.20096,-1.92421 -3.04066,-6.02916 0,0 -2.131495,0.94645 -3.072195,0.83323 -2.21554,-0.26665 -1.91267,-0.79336 -5.39121,-0.55185 -0.50534,0.0351 -2.04498,0.90998 -4.13467,0.80656 0,0 2.13087,2.32111 2.27534,3.09038 0.0336,0.17901 -2.1395,-0.49242 -2.1395,-0.49242 -0.0256,0.1531 1.39684,1.84399 4.32145,2.55552 0.12415,0.0302 3.24666,-1.6656 2.36874,-4.40636 0,0 0.98676,1.26903 0.3709,2.67086 -0.61587,1.40184 -2.6802,1.79493 -2.6802,1.79493 l 2.32628,0.81504 c 0,0 0.085,2.07906 1.81808,2.60706 0,0 -0.18962,-1.55335 0.0328,-1.79201 0,0 3.815385,1.47823 3.707505,5.10897 -0.008,0.25276 -0.27387,2.59098 -2.111375,2.56607 0,0 -2.19642,-2.97862 -4.68652,-2.92059 z"
     id="path16" /><ellipse
     style="fill:#fdfcfc;fill-opacity:1;stroke-width:2.7332;stroke-dasharray:none;paint-order:markers fill stroke"
     id="path17"
     cx="62.435284"
     cy="54.820404"
     rx="0.75342619"
     ry="0.72340924" /><path
     style="display:inline;fill:#9a5e2a;fill-opacity:1;stroke-width:2.5;stroke-dasharray:none;paint-order:markers fill stroke"
     d="m 94.477193,50.912464 c 0.0354,0.11476 0.001,-7.39382 0.001,-7.39382 l -3.00803,-6.62735 -2.24139,0.13584 -2.37722,-5.535535 -2.20742,0.10188 -2.44514,-5.433655 h -1.833861 l -2.241381,-5.026128 -1.9697,0.03396 -0.034,-3.226231 0.43948,1.24e-4 -0.015,-0.967994 -12.234208,0.0085 0.017,0.891458 0.67568,0.008 -0.012,3.301868 -2.1252,0.01201 -2.16122,4.778703 -1.88507,-0.01201 -2.68952,5.499111 -2.04115,0.02402 -2.56946,5.547139 -1.99312,0.048 -1.08061,2.23326 1.36877,-0.072 0.45626,-1.03258 11.09427,-0.072 -0.1921,1.12263 c 0,0 1.40206,-1.11262 1.39278,-1.07461 l 3.96224,-16.233182 h 0.55232 c 0,0 -1.96218,14.924472 -1.9451,14.912442 1.06305,-0.74846 2.65349,-1.00857 2.65349,-1.00857 l -1.44081,-0.1801 0.012,-0.6964 c 0,0 6.280048,-0.1722 9.437338,0 0.0781,0.004 -1.84904,-12.919306 -1.84904,-12.919306 l 0.51629,0.01201 3.4489,13.333646 c 0,0 3.972142,0.42732 6.950922,2.76746 0.0842,0.0661 5.56921,0 5.56921,0 l 0.84048,2.22125 -3.25384,-0.012 c 0,0 4.49124,4.15769 6.45695,10.53016 z"
     id="path18" /><path
     style="display:inline;fill:#9a5e2a;fill-opacity:1;stroke-width:2.5;stroke-dasharray:none;paint-order:markers fill stroke"
     d="m 54.982833,43.645354 1.76565,-2.98173 c 0,0 2.79772,-0.0284 2.71303,0.053 -0.85941,0.8263 -1.50657,1.76248 -2.18936,3.02457 -0.028,0.0518 -2.28932,-0.0959 -2.28932,-0.0959 z"
     id="path19" /><path
     style="display:inline;fill:#9a5e2a;fill-opacity:1;stroke-width:2.5;stroke-dasharray:none;paint-order:markers fill stroke"
     d="m 52.948243,47.936704 c -0.0231,0.0161 0.60804,-1.74226 0.60804,-1.74226 l 2.87649,-0.10524 -0.12863,1.32131 c 0,0 -2.98441,0.26622 -3.3559,0.52619 z"
     id="path20" /><rect
     style="display:inline;fill:#9a5e2a;fill-opacity:1;stroke-width:2.88144;stroke-dasharray:none;paint-order:markers fill stroke"
     id="rect20"
     width="12.137377"
     height="0.91205722"
     x="64.430817"
     y="15.652212" /><rect
     style="display:inline;fill:#9a5e2a;fill-opacity:1;stroke-width:2.88144;stroke-dasharray:none;paint-order:markers fill stroke"
     id="rect20-9"
     width="12.137377"
     height="0.91205722"
     x="64.409027"
     y="14.084997" /><path
     style="display:inline;fill:#fefdff;fill-opacity:1;stroke-width:2.5;stroke-dasharray:none;paint-order:markers fill stroke"
     d="m 65.877933,21.093762 2.53008,-0.01654 0.008,-2.61276 4.349088,-0.01653 0.0555,2.63414 2.31409,-0.01654 10e-4,-2.983412 -9.250078,0.002 z"
     id="path21" /><rect
     style="fill:#fefdff;fill-opacity:1;stroke-width:3.50438;stroke-dasharray:none;paint-order:markers fill stroke"
     id="rect21"
     width="8.3782616"
     height="1.0597101"
     x="66.275879"
     y="33.091496"
     ry="0" /><rect
     style="display:inline;fill:#fefdff;fill-opacity:1;stroke-width:3.40617;stroke-dasharray:none;paint-order:markers fill stroke"
     id="rect21-2"
     width="7.9152408"
     height="1.0597101"
     x="66.547668"
     y="31.263685" /><rect
     style="display:inline;fill:#fefdff;fill-opacity:1;stroke-width:3.31603;stroke-dasharray:none;paint-order:markers fill stroke"
     id="rect21-27"
     width="7.5018291"
     height="1.0597101"
     x="66.750946"
     y="29.649542" /><rect
     style="display:inline;fill:#fefdff;fill-opacity:1;stroke-width:3.24957;stroke-dasharray:none;paint-order:markers fill stroke"
     id="rect21-9"
     width="7.2041731"
     height="1.0597101"
     x="66.911453"
     y="28.039076" /><rect
     style="display:inline;fill:#fefdff;fill-opacity:1;stroke-width:3.15496;stroke-dasharray:none;paint-order:markers fill stroke"
     id="rect21-28"
     width="6.7907615"
     height="1.0597101"
     x="67.093353"
     y="26.393698" /><rect
     style="display:inline;fill:#fefdff;fill-opacity:1;stroke-width:3.06534;stroke-dasharray:none;paint-order:markers fill stroke"
     id="rect21-8"
     width="6.4104233"
     height="1.0597101"
     x="67.266998"
     y="24.872343" /><rect
     style="display:inline;fill:#fefdff;fill-opacity:1;stroke-width:2.96689;stroke-dasharray:none;paint-order:markers fill stroke"
     id="rect21-0"
     width="6.00528"
     height="1.0597101"
     x="67.506775"
     y="23.301382" /><rect
     style="display:inline;fill:#fefdff;fill-opacity:1;stroke-width:2.88193;stroke-dasharray:none;paint-order:markers fill stroke"
     id="rect21-06"
     width="5.6662822"
     height="1.0597101"
     x="67.622528"
     y="21.780027" /><path
     style="display:inline;fill:#9a5e2a;fill-opacity:1;stroke-width:2.5;stroke-dasharray:none;paint-order:markers fill stroke"
     d="m 67.854043,21.424492 -1.5379,13.609502 -0.5457,-0.21497 1.70326,-13.328387 z"
     id="path25" /><path
     style="display:inline;fill:#9a5e2a;fill-opacity:1;stroke-width:2.74584;stroke-dasharray:none;paint-order:markers fill stroke"
     d="m 72.897661,21.077226 1.85524,13.609508 0.6583,-0.214975 -2.05472,-13.328388 z"
     id="path25-0" /><path
     style="display:inline;fill:#fefdff;fill-opacity:1;stroke-width:2.57739;stroke-dasharray:none;paint-order:markers fill stroke"
     d="m 87.601133,34.916584 h -8.928642 l -0.72061,-2.315109 8.629842,0.01654 z"
     id="path22-9" /><path
     style="display:inline;fill:#fefdff;fill-opacity:1;stroke-width:2.52943;stroke-dasharray:none;paint-order:markers fill stroke"
     d="m 53.847663,34.868634 h 8.59944 l 0.69404,-2.315106 -8.31166,0.01654 z"
     id="path22" /><path
     style="fill:#fefdff;fill-opacity:1;stroke-width:2.5;stroke-dasharray:none;paint-order:markers fill stroke"
     d="m 58.676303,29.130481 0.84337,-2.05052 5.07668,-0.04961 -0.44648,2.05052 z"
     id="path23" /><path
     style="display:inline;fill:#fefdff;fill-opacity:1;stroke-width:2.49651;stroke-dasharray:none;paint-order:markers fill stroke"
     d="m 82.439203,29.196628 -0.84102,-2.05052 -5.062492,-0.04961 0.44523,2.05052 z"
     id="path23-7" /><path
     style="fill:#fefdff;fill-opacity:1;stroke-width:3.03679;stroke-dasharray:none;paint-order:markers fill stroke"
     d="m 62.799633,24.024432 0.77971,-1.874619 2.44757,-0.03719 -0.45276,1.908521 z"
     id="path24" /><path
     style="display:inline;fill:#fefdff;fill-opacity:1;stroke-width:3.03679;stroke-dasharray:none;paint-order:markers fill stroke"
     d="m 78.318701,23.98819 -0.77971,-1.874619 -2.44757,-0.03719 0.4698,1.913952 z"
     id="path24-7" /><path
     style="fill:#ee9c2b;fill-opacity:1;stroke-width:2.5;stroke-dasharray:none;paint-order:markers fill stroke"
     d="m 31.307976,50.164854 c 0,0 2.62813,-8.47873 15.77578,-10.55026 0,0 1.67758,-3.93712 1.75287,-4.00182 0.0721,-0.062 1.9513,0.0661 1.9513,0.0661 l 2.87734,-5.655464 c 0,0 1.70893,0.103534 1.61231,0.01654 -11.81985,-10.642402 -21.44779,-2.579688 -21.44779,-2.579688 -8.26775,5.817138 -8.04445,17.425442 -2.52181,22.704592 z"
     id="path26" /><path
     style="display:inline;fill:#ee9c2b;fill-opacity:1;stroke-width:2.5;stroke-dasharray:none;paint-order:markers fill stroke"
     d="m 25.469586,41.166424 0.006,-2.0989 -12.610942,0.75421 z"
     id="path32" /><path
     style="display:inline;fill:#ee9c2b;fill-opacity:1;stroke-width:2.5;stroke-dasharray:none;paint-order:markers fill stroke"
     d="m 25.864646,35.125374 0.72969,-1.967988 -14.33036,-4.554528 z"
     id="path32-5" /><path
     style="display:inline;fill:#ee9c2b;fill-opacity:1;stroke-width:2.5;stroke-dasharray:none;paint-order:markers fill stroke"
     d="m 28.722286,29.666517 1.37675,-1.584289 -11.55574,-8.843349 z"
     id="path32-0" /><path
     style="display:inline;fill:#ee9c2b;fill-opacity:1;stroke-width:2.5;stroke-dasharray:none;paint-order:markers fill stroke"
     d="m 33.282156,25.449423 1.8426,-1.0051 -7.74891,-12.316424 z"
     id="path32-0-7" /><path
     style="display:inline;fill:#ee9c2b;fill-opacity:1;stroke-width:2.5;stroke-dasharray:none;paint-order:markers fill stroke"
     d="m 38.962056,23.030067 2.07956,-0.284311 -2.86365,-14.2667253 z"
     id="path32-0-73" /><path
     style="display:inline;fill:#ee9c2b;fill-opacity:1;stroke-width:2.5;stroke-dasharray:none;paint-order:markers fill stroke"
     d="m 45.470976,22.878546 2.06945,0.350481 1.53307,-14.4703003 z"
     id="path32-0-8" /><path
     style="display:inline;fill:#ee9c2b;fill-opacity:1;stroke-width:2.5;stroke-dasharray:none;paint-order:markers fill stroke"
     d="m 51.349966,24.567559 1.8251,1.036531 6.38544,-13.0754 z"
     id="path32-0-6" /></svg>
